# xmcd
#
# Track frame offsets:
#	150
#	8440
#	20103
#	32590
#	49435
#	63460
#	71583
#	88196
#	99935
#	120760
#	134973
#	144573
#	161073
#
# Disc length: 2312 seconds
#
# Revision: 1
# Processed by: cddbd v1.5.2PL0 Copyright (c) Steve Scherf et al.
# Submitted via: audiograbber 1.83.01
#
DISCID=b309060d
DTITLE=Mark's Brothers - Blue Moon In Texas
DYEAR=1999
DGENRE=Country
TTITLE0=Freight Train Boogie
TTITLE1=There's a Blue Moon in Texas Tonight
TTITLE2=I Bet You Thought I'd Never Find You
TTITLE3=Honky Tonk Blues - Oh, Lonesome Me
TTITLE4=Apache
TTITLE5=Settin' the Woods on Fire
TTITLE6=Desert Skies (Same Old Moon)
TTITLE7=Baby Let's Go
TTITLE8=Brand New Brim
TTITLE9=Southbound
TTITLE10=Maybe Baby
TTITLE11=Through the Storm
TTITLE12=Get the Hell Outta Dodge
EXTD=
EXTT0=
EXTT1=
EXTT2=
EXTT3=
EXTT4=
EXTT5=
EXTT6=
EXTT7=
EXTT8=
EXTT9=
EXTT10=
EXTT11=
EXTT12=
PLAYORDER=
